<?xml version="1.0" encoding="UTF-8" standalone="no"?>
<!-- Created with Inkscape (http://www.inkscape.org/) -->

<svg
   xmlns:dc="http://purl.org/dc/elements/1.1/"
   xmlns:cc="http://creativecommons.org/ns#"
   xmlns:rdf="http://www.w3.org/1999/02/22-rdf-syntax-ns#"
   xmlns:svg="http://www.w3.org/2000/svg"
   xmlns="http://www.w3.org/2000/svg"
   xmlns:sodipodi="http://sodipodi.sourceforge.net/DTD/sodipodi-0.dtd"
   xmlns:inkscape="http://www.inkscape.org/namespaces/inkscape"
   id="svg2"
   version="1.1"
   inkscape:version="0.91 r13725"
   width="1288"
   height="1261"
   viewBox="0 0 1288 1261"
   sodipodi:docname="logo2.svg">
  <metadata
     id="metadata8">
    <rdf:RDF>
      <cc:Work
         rdf:about="">
        <dc:format>image/svg+xml</dc:format>
        <dc:type
           rdf:resource="http://purl.org/dc/dcmitype/StillImage" />
        <dc:title></dc:title>
      </cc:Work>
    </rdf:RDF>
  </metadata>
  <defs
     id="defs6" />
  <sodipodi:namedview
     pagecolor="#ffffff"
     bordercolor="#666666"
     borderopacity="1"
     objecttolerance="10"
     gridtolerance="10"
     guidetolerance="10"
     inkscape:pageopacity="0"
     inkscape:pageshadow="2"
     inkscape:window-width="1223"
     inkscape:window-height="706"
     id="namedview4"
     showgrid="false"
     inkscape:zoom="0.48"
     inkscape:cx="633.82698"
     inkscape:cy="547.16667"
     inkscape:window-x="58"
     inkscape:window-y="0"
     inkscape:window-maximized="0"
     inkscape:current-layer="svg2"
     showborder="false" />
  <path
     style="fill:#000000"
     d="m 626.61281,1126.5 c -40.6922,-27.4635 -68.99688,-49.7246 -90.53494,-71.2038 -24.91603,-24.848 -35.85874,-41.9209 -42.01119,-65.5462 -2.00832,-7.71189 -2.33981,-11.36153 -2.31612,-25.5 0.0433,-25.82966 4.685,-46.46363 19.90858,-88.5 3.93549,-10.86695 29.05052,-74.33546 33.7628,-85.32242 l 1.42498,-3.32241 2.14095,11.32241 c 5.03738,26.64017 14.81735,46.55149 30.63353,62.36768 26.2379,26.23789 63.42805,34.11118 96.57054,20.44431 21.77245,-8.97823 40.99616,-28.91796 51.1279,-53.03224 3.55173,-8.45337 7.43104,-22.8622 8.94755,-33.23363 l 1.1682,-7.98938 1.43656,3.38284 c 4.54099,10.69325 21.56124,53.19173 27.98743,69.88284 19.92686,51.75715 27.18327,82.21001 25.97291,109 -0.71829,15.8984 -3.32673,26.3454 -10.1122,40.5 -7.83743,16.349 -29.49879,45.3643 -37.6289,50.4037 -2.49381,1.5458 -9.42101,7.2923 -18.85451,15.6409 -10.54477,9.3321 -32.66865,25.8646 -61.07022,45.6359 -18.87814,13.1418 -20.01734,13.8195 -23.22883,13.8195 -1.31281,0 -8.11409,-3.8833 -15.32502,-8.75 z m 6.65579,-262.40131 c -14.04519,-2.03104 -28.50793,-9.91664 -39.93741,-21.77531 -14.66438,-15.21505 -24.3669,-35.30814 -29.73247,-61.57338 -9.30522,-45.5504 -25.54428,-74.24276 -54.43206,-96.17455 -22.17204,-16.83316 -39.71481,-22.96559 -75.47279,-26.38302 -11.56496,-1.10528 -24.73237,-2.88431 -29.26091,-3.95339 -26.81493,-6.3304 -44.51337,-25.89074 -61.06496,-67.48904 -3.56595,-8.96214 -11.20134,-31.79721 -11.20134,-33.49972 0,-1.80637 33.40038,-4.49928 55.5,-4.4747 31.07262,0.0346 44.98923,2.89678 61.91049,12.73305 7.76534,4.51398 20.66407,16.99052 27.58951,26.68649 17.74954,24.85027 26.94201,35.89085 37.94482,45.57347 7.99918,7.03938 20.74823,16.12169 21.53125,15.33867 0.26828,-0.26827 2.0394,-9.61439 3.93583,-20.76916 1.89642,-11.15476 3.68732,-20.52066 3.97977,-20.8131 0.29244,-0.29245 2.56953,-0.0186 5.06019,0.60856 8.81341,2.21924 18.70323,2.46734 27.60254,0.69243 8.26871,-1.64913 19.81011,-6.23841 23.04023,-9.16163 1.44839,-1.31077 2.41922,-1.02171 8.89714,2.64909 14.25468,8.07761 22.83037,10.91281 33.00823,10.91281 10.03581,0 21.26758,-3.81798 34.75321,-11.81354 l 5.2532,-3.11461 4.69797,2.97937 c 12.99246,8.23957 31.75065,10.90837 47.96851,6.82467 2.42205,-0.60988 4.66133,-0.85126 4.97618,-0.53641 0.31486,0.31485 2.1004,9.6754 3.96788,20.80121 1.86748,11.12581 3.60849,20.44182 3.86891,20.70224 1.2865,1.28651 17.69081,-11.25264 27.72821,-21.19492 8.64652,-8.56458 14.07593,-15.2241 27.82105,-34.12427 20.07187,-27.59975 34.51905,-37.7429 61.46488,-43.15359 12.91205,-2.59273 48.98434,-2.55541 71.29208,0.0738 l 16.29208,1.92017 -0.66618,3.07983 c -0.85543,3.95475 -8.90293,27.2664 -12.11004,35.07984 -2.72098,6.62907 -10.98774,23.28076 -14.09167,28.38477 -3.81654,6.2758 -12.58108,16.65395 -18.12635,21.46354 -11.24251,9.75099 -24.87173,14.56896 -47.08992,16.64644 -24.90916,2.3291 -31.70131,3.24821 -40.50197,5.48068 -22.41028,5.68483 -39.55021,15.84867 -59.06418,35.02457 -19.89839,19.55366 -30.51907,40.60584 -38.47377,76.26225 -4.08444,18.30821 -6.82211,28.79124 -8.65634,33.14667 -10.08817,23.95471 -20.72192,37.77709 -36.81602,47.85566 -12.82986,8.03441 -28.27761,11.26885 -43.38578,9.08411 z m 76.23373,-271.00232 c -13.8003,-1.58145 -19.22082,-8.77874 -16.35252,-21.71266 1.65023,-7.44133 11.48821,-40.57336 18.00413,-60.63371 15.61439,-48.07154 19.848,-84.14668 14.05335,-119.75038 -0.98941,-6.07912 0.003,-11.71082 2.41602,-13.71364 2.25499,-1.87148 6.65339,-0.79453 8.85557,2.1683 4.15219,5.58638 8.40219,41.90172 9.62789,82.26823 0.054,1.78019 0.22463,1.73144 1.74953,-0.5 0.92931,-1.35988 2.29853,-2.84313 3.04273,-3.29611 0.74419,-0.45298 2.79635,-2.42134 4.56035,-4.37414 1.76401,-1.95279 7.35185,-6.89275 12.41744,-10.97768 19.18616,-15.47188 23.96892,-24.11246 26.39756,-47.69007 1.2902,-12.52541 2.73024,-16.30475 6.58081,-17.27118 2.15341,-0.54048 3.16897,-0.0872 5.40045,2.41023 3.32429,3.72052 4.41102,9.99708 4.41102,25.47644 0,5.9125 0.0434,10.75 0.0964,10.75 0.053,0 3.65301,-1.73475 8,-3.85501 4.347,-2.12025 11.38878,-5.15775 15.64841,-6.75 l 7.74475,-2.89499 7.41174,-14.5 c 16.58002,-32.4364 26.34317,-61.22934 29.63821,-87.40735 1.91453,-15.21025 0.79329,-38.71985 -2.43675,-51.09265 -6.8108,-26.08902 -23.43802,-48.976 -48.00567,-66.07863 -8.64471,-6.01797 -12.07149,-10.02152 -10.99003,-12.83978 0.91862,-2.39387 5.06209,-3.01543 9.21017,-1.38161 6.24938,2.46147 28.46262,19.3317 36.91236,28.03372 8.52396,8.77847 20.53289,24.89986 26.43335,35.48547 l 4.33706,7.78083 0.5,-8.5 c 1.19259,-20.2741 -1.27449,-48.21096 -6.5789,-74.49838 -2.9899,-14.81721 -3.06416,-18.60969 -0.41138,-21.01041 1.73962,-1.57434 2.33831,-1.64291 4.45475,-0.51023 4.34331,2.32447 5.64663,6.50908 12.05031,38.69022 16.41402,82.48724 12.71374,143.27194 -12.10672,198.87799 -2.57866,5.77705 -4.49064,10.70157 -4.24884,10.94337 0.78375,0.78374 18.99873,-6.48126 32.55538,-12.98463 30.20683,-14.49077 45.6324,-29.98665 53.76291,-54.00793 4.19467,-12.39299 4.91362,-19.15305 4.96891,-46.72093 0.0525,-26.18973 0.0975,-26.76485 2.26119,-28.92983 1.88208,-1.88319 2.5747,-2.04164 4.69711,-1.07461 4.51825,2.05866 5.66589,5.29481 7.24107,20.41867 1.78608,17.14879 2.08212,48.59414 0.54856,58.26875 -0.60696,3.82913 -0.95873,7.10691 -0.78169,7.28394 0.62086,0.62086 11.16378,-8.08304 18.92918,-15.62742 12.8351,-12.46965 23.2692,-27.106 31.8778,-44.71628 4.7113,-9.63786 8.0641,-13.24951 13.0508,-14.05875 2.9608,-0.48046 4.0294,-0.13466 6.1561,1.99208 4.0131,4.01307 3.5244,9.39765 -1.952,21.50663 -18.9128,41.81897 -45.8987,73.45403 -86.47454,101.37246 -15.49531,10.66165 -35.47306,21.85677 -71,39.78695 -49.64596,25.05596 -67.98086,35.85141 -88,51.81377 -26.16,20.8588 -45.2832,45.8095 -58.8359,76.76524 -3.53029,8.06355 -7.08711,18.54092 -12.87274,37.91933 -1.75209,5.86847 -1.90097,6.03584 -6.79136,7.63469 -5.82103,1.90311 -19.32963,2.72409 -28.16433,1.71168 z m -161.578,-1.17322 c -5.77311,-1.80976 -7.3271,-3.7878 -9.26567,-11.79404 C 529.3419,541.65108 506.66279,502.63562 479.87825,479.00764 455.38429,457.40029 439.23993,447.34018 383.16666,418.7433 340.79959,397.13646 329.98283,391.15015 312.45089,379.60712 281.10565,358.96941 254.57323,332.23789 237.15876,303.75 c -5.03165,-8.23115 -15.58842,-29.10439 -17.59249,-34.78455 -2.19722,-6.22757 -1.81528,-11.39069 1.05494,-14.2609 2.78354,-2.78355 5.42992,-3.08278 9.34747,-1.05693 3.98298,2.05968 5.37501,3.98244 11.65772,16.10238 8.06688,15.56176 15.04309,25.64999 25.21333,36.46075 7.80128,8.29261 23.1183,21.58121 23.93458,20.76493 0.16587,-0.16586 -0.18523,-3.4345 -0.78021,-7.26363 -2.03314,-13.08472 -1.06524,-50.80721 1.7896,-69.74675 0.61849,-4.10323 4.67206,-9.7153 7.01731,-9.7153 0.80111,0 2.59995,1.14339 3.99742,2.54086 l 2.54086,2.54086 -0.69188,19.70914 c -2.01519,57.4056 11.55486,83.15174 55.42945,105.16503 9.35646,4.69443 34.25539,15.04411 36.19266,15.04411 0.42366,0 -1.19747,-4.1625 -3.6025,-9.25 -2.40504,-5.0875 -6.61704,-16 -9.36,-24.25 -13.97403,-42.02968 -17.15359,-85.62474 -10.10134,-138.5 3.71853,-27.88018 12.09597,-68.71416 15.11985,-73.69837 2.45292,-4.0431 5.35877,-5.04814 7.91279,-2.73678 2.53222,2.29163 2.49975,7.41068 -0.12322,19.4287 -4.6695,21.39487 -6.10107,34.02134 -6.66171,58.75645 -0.40124,17.70219 -0.24414,24.25 0.58181,24.25 0.6223,0 1.13146,-0.37571 1.13146,-0.8349 0,-1.5515 9.91202,-17.16761 15.83168,-24.94237 6.61677,-8.69032 26.78335,-28.51084 33.95313,-33.37048 2.59335,-1.75776 6.74019,-4.85579 9.21519,-6.88451 2.475,-2.02872 6.14949,-4.27805 8.16554,-4.99851 3.19755,-1.14268 3.99552,-1.09372 6.25,0.38347 1.42145,0.93138 2.58446,2.25357 2.58446,2.93822 0,2.61853 -5.24289,8.79234 -9.16638,10.79396 -5.80677,2.96239 -30.18157,26.06467 -35.02411,33.19562 -6.00226,8.83873 -12.56019,23.36518 -15.54882,34.44215 -2.44292,9.05439 -2.64252,11.33014 -2.69934,30.77735 -0.0535,18.30592 0.24135,22.47533 2.29813,32.5 2.66451,12.98664 11.32038,39.77414 17.08565,52.87531 5.69733,12.94677 15.55806,32.32104 17.68936,34.7559 1.02603,1.17217 5.46551,3.59024 9.86551,5.3735 4.4,1.78325 11.02627,4.76171 14.72504,6.61879 3.69877,1.85707 6.84877,3.37554 7,3.37436 0.15123,-10e-4 0.31293,-5.73867 0.35933,-12.75 0.0911,-13.76061 1.39641,-20.45494 4.67936,-23.99786 2.31589,-2.49929 4.43675,-2.80024 6.82293,-0.9682 2.84537,2.18461 3.65219,5.03982 4.86553,17.2182 2.15748,21.65504 6.19453,29.111 24.67711,45.57579 6.85944,6.11058 14.96391,13.54332 18.00993,16.51718 3.04602,2.97387 5.6758,5.40703 5.84395,5.40703 0.16815,0 0.36387,-7.18128 0.43493,-15.95839 0.12766,-15.76678 1.47799,-30.75655 4.76734,-52.9214 2.04742,-13.79628 4.0775,-17.62021 9.35438,-17.62021 2.97594,0 3.70505,0.50061 5.20999,3.57723 1.64801,3.36911 1.65552,4.21273 0.12914,14.5 -0.97488,6.57035 -1.64215,17.6968 -1.67457,27.92277 -0.0901,28.43562 3.74774,47.80813 19.31573,97.5 4.91083,15.675 10.54364,34.35 12.51736,41.5 5.15999,18.69257 4.09074,24.31978 -5.55791,29.25 -3.95395,2.02037 -5.78505,2.24216 -17.94146,2.17315 -7.44596,-0.0423 -15.22216,-0.60477 -17.28044,-1.25 z"
     id="path4162"
     inkscape:connector-curvature="0" />
</svg>
